PathFileType	4	(X/Y/Z)	C:/Users/beibeiliu/ov580/test_trc/User2\sequence.4_training_dense_left.trc
DataRate	CameraRate	NumFrames	NumMarkers	Units	OrigDataRate	OrigDataStartFrame	OrigNumFrames
120	120	18	19	mm	120	1	296
Frame#	Time	ThumbCMC			ThumbMCP			ThumbIP			ThumbTip			IndexMCP			IndexPIP			IndexTip			MiddleMCP			MiddlePIP			MiddleTip			RingMCP			RingPIP			RingTip			PinkyMCP			PinkyPIP			PinkyTip			BackHand1			BackHand2			BackHand3	
		X0	Y0	Z0	X1	Y1	Z1	X2	Y2	Z2	X3	Y3	Z3	X4	Y4	Z4	X5	Y5	Z5	X6	Y6	Z6	X7	Y7	Z7	X8	Y8	Z8	X9	Y9	Z9	X10	Y10	Z10	X11	Y11	Z11	X12	Y12	Z12	X13	Y13	Z13	X14	Y14	Z14	X15	Y15	Z15	X16	Y16	Z16	X17	Y17	Z17	X18	Y18	Z18	
0	0	-124.327	11.4379	94.4208	-107.526	-2.83695	75.0753	-86.1913	-15.2912	49.946	-73.6505	-28.6539	29.5954	-153.169	13.755	15.5486	-148.914	11.6221	-11.0078	-147.761	12.8409	-43.3752	-179.492	17.8294	9.85217	-185.652	15.1252	-21.5811	-193.47	9.78363	-52.2754	-203.451	15.3405	18.7726	-211.838	13.3818	-3.26231	-220.513	8.08658	-31.0724	-226.159	10.2081	44.1678	-237.387	8.78067	24.4439	-246.47	11.7972	-0.448024	-193.749	29.1864	69.8417	-187.598	41.8881	104.959	-156.951	34.5181	79.2267	
1	0.00833333	-127.355	10.4403	92.279	-107.942	-2.0727	73.3172	-92.6688	-15.7904	48.7762	-75.534	-28.895	29.8115	-154.857	14.1546	13.7455	-151.815	12.9945	-15.44	-151.168	12.4729	-44.7132	-180.274	17.6973	6.89338	-185.492	15.0903	-19.4197	-194.695	10.1459	-52.4637	-208.414	16.6432	21.4469	-212.154	12.9891	-4.16912	-222.174	7.94449	-36.5319	-223.569	9.40254	46.8402	-240.627	10.566	19.6422	-249.189	13.7379	1.38953	-196.55	29.053	73.9247	-188.151	42.2514	101.775	-157.607	33.205	77.4683	
2	0.0166667	-127.695	10.4344	94.0952	-110.144	-2.08027	75.8615	-89.2452	-16.4574	46.0185	-78.3361	-28.367	33.5504	-150.359	13.7393	10.0324	-152.552	12.5536	-13.4853	-147.85	12.1381	-40.849	-182.646	18.8294	10.3365	-186.47	15.0265	-20.6519	-191.827	10.6785	-51.1394	-203.415	16.5458	22.3227	-214.116	12.7158	-8.44113	-223.365	7.7189	-35.2828	-225.496	11.281	45.9787	-240.264	10.186	21.6467	-248.486	11.5768	0.167557	-197.582	30.0907	73.2967	-187.982	40.8561	101.762	-159.042	34.0138	80.4118	
3	0.025	-124.754	11.0489	88.9981	-110.633	-2.06835	72.6845	-90.8294	-15.6959	47.9078	-77.0172	-27.7205	35.2713	-152.945	14.7877	10.6766	-148.088	14.0729	-16.8882	-153.063	12.6874	-39.9762	-180.087	19.2861	11.4437	-187.013	15.9344	-22.7481	-194.685	11.4076	-51.6182	-203.469	17.3688	19.6458	-214.416	13.8226	-6.97864	-219.645	8.98937	-31.1747	-220.751	9.97088	45.6293	-235.281	11.1266	20.4275	-247.59	14.5817	0.710606	-196.294	28.9527	70.3892	-191.836	41.96	101.208	-157.957	34.5643	77.1336	
4	0.0333333	-128.818	11.078	93.5264	-109.203	-2.20038	71.3491	-88.2853	-15.5396	49.7023	-74.5037	-28.0865	33.9942	-149.986	15.1422	14.3001	-149.476	14.0922	-11.4953	-148.037	13.5139	-39.1806	-178.325	20.291	5.86338	-184.469	15.1751	-24.9853	-191.7	12.0897	-50.2695	-207.876	17.0855	21.7727	-213.316	14.3651	-8.46284	-222.581	8.1449	-34.8869	-226.642	11.1383	45.1376	-233.819	10.2337	21.3078	-247.662	14.6975	0.42313	-196.819	30.847	71.0403	-186.448	41.9604	98.9952	-158.752	33.6632	77.7265	
5	0.0416667	-128.828	10.5538	89.4579	-110.421	-1.79339	72.1974	-91.1574	-15.9001	45.788	-74.5795	-28.4984	32.8415	-149.345	14.7623	15.6066	-152.36	14.0101	-15.5118	-148.641	13.234	-39.2272	-182.523	19.4211	7.43899	-184.943	15.9704	-22.1617	-195.074	11.4408	-50.9716	-208.56	17.276	21.842	-216.474	14.2181	-7.44292	-223.416	8.66179	-31.6011	-224.489	11.7401	44.897	-234.012	9.9857	23.2894	-248.761	12.2022	1.07567	-193.105	30.8783	73.8985	-188.644	41.7494	101.578	-155.466	33.596	78.5261	
6	0.05	-126.62	10.9592	89.4995	-108.399	-2.12576	71.3727	-92.7467	-16.9323	50.3388	-77.7676	-28.3233	33.5163	-153.708	14.9853	10.5929	-149.04	12.9465	-11.4369	-151.095	13.2666	-39.3944	-183.729	19.3239	7.07753	-184.734	15.7156	-19.9046	-193.399	11.6935	-53.1544	-203.746	16.5613	22.9351	-214.827	13.6244	-4.82605	-220.828	8.45716	-36.1621	-227.11	11.3609	45.6036	-239.017	10.6182	19.2499	-249.541	12.6645	-0.373432	-192.461	28.6095	74.4731	-190.105	42.2063	103.419	-158.684	35.7223	79.9414	
7	0.0583333	-126.233	12.4783	94.0631	-108.981	-1.81154	74.5351	-88.5325	-15.3379	46.7451	-74.0278	-27.4944	34.3012	-152.411	15.8209	11.8145	-148.474	13.528	-16.2839	-152.002	14.1853	-39.5272	-181.814	19.2287	7.09981	-185.981	15.5266	-20.7317	-190.618	10.0575	-56.1404	-203.752	17.021	21.5207	-217.266	13.5353	-4.80907	-222.616	7.79777	-31.9831	-227.15	12.7239	43.2072	-236.398	10.2714	22.1246	-249.775	12.3256	-3.4509	-197.642	29.7979	75.1986	-190.258	41.9655	101.455	-155.813	36.3977	78.2305	
8	0.0666667	-127.456	10.0201	91.5969	-110.741	-3.52591	71.7901	-93.5488	-16.7737	48.3416	-76.5669	-28.8593	30.1544	-152.612	14.7193	14.3511	-150.295	13.4583	-16.7208	-147.543	12.9592	-44.1054	-180.957	18.8676	10.4448	-189.264	14.8411	-23.8374	-193.213	9.61509	-53.0073	-206.306	17.0439	20.4106	-216.714	13.6029	-4.47565	-220.369	6.70844	-35.2156	-226.256	11.4055	47.5565	-236.156	10.0388	23.1488	-249.755	12.5327	-1.00869	-195.485	28.3423	73.1668	-190.391	41.5798	104.544	-157.728	33.601	80.0828	
9	0.075	-128.817	10.4118	93.0975	-106.452	-3.23445	72.3221	-88.3729	-15.7938	50.2132	-78.8179	-29.807	33.3883	-151.075	14.3057	12.866	-152.368	13.5613	-12.1822	-151.171	13.8903	-41.3375	-179.261	18.9159	7.65103	-184.353	15.1683	-22.3302	-192.043	9.7344	-51.695	-202.683	17.4263	18.3992	-216.448	14.7596	-2.98349	-221.11	6.84095	-33.2047	-221.224	10.7014	46.3936	-237.842	10.5284	20.879	-247.447	11.4699	-1.05455	-197.241	29.7117	73.8195	-189.874	41.9662	100.011	-155.807	34.2912	80.1763	
10	0.0833333	-126.856	10.0223	90.7721	-108.686	-3.70396	72.9519	-90.214	-17.9006	48.2771	-75.4781	-30.3466	31.77	-153.461	13.2218	11.6992	-149.552	11.9088	-13.4969	-151.724	12.4704	-43.7136	-180.678	18.6176	6.12501	-185.168	14.2987	-21.2991	-195.844	9.65271	-51.1844	-208.408	16.8056	21.6424	-215.822	14.2051	-3.76741	-220.681	7.15694	-35.1129	-221.699	10.32	45.5806	-236.986	10.7079	20.8901	-247.45	11.043	-0.677077	-196.818	29.4572	73.9027	-189.277	40.176	99.0974	-157.83	34.4378	79.0505	
11	0.0916667	-130.46	7.89081	94.3956	-106.192	-5.19082	75.5026	-88.8795	-19.5588	50.5854	-80.0664	-33.3295	33.7516	-151.97	12.6066	11.6345	-149.568	11.4551	-15.6031	-151.512	11.5082	-39.6684	-180.569	17.7941	9.31097	-187.95	14.2864	-22.9978	-195.066	8.16543	-55.0267	-206.938	15.76	23.1465	-213.026	12.3062	-3.97588	-222.443	6.33208	-31.1872	-222.68	11.0053	40.3074	-234.913	8.73205	21.9043	-250.457	11.1252	-1.5177	-197.078	29.9306	71.7834	-191.411	41.1761	101.387	-155.67	30.7059	77.8411	
12	0.1	-130.639	7.91018	89.9208	-111.819	-8.00563	74.2105	-89.0502	-23.2322	51.1401	-77.6604	-36.3124	34.227	-150.583	13.2532	10.6702	-146.816	12.0611	-14.518	-149.047	11.9084	-38.6621	-178.545	17.8077	7.09151	-187.134	13.2416	-24.8591	-195.01	6.83626	-51.689	-208.372	16.3556	21.5052	-212.32	11.1348	-7.94787	-221.357	2.92492	-33.5144	-224.698	10.2885	45.3997	-236.26	8.51438	22.3169	-248.45	9.17558	-4.6014	-193.13	27.0303	70.1943	-188.283	40.2587	103.403	-157.228	31.2046	80.645	
13	0.108333	-128.491	6.53925	94.0149	-107.641	-9.62165	73.4127	-90.9276	-25.9588	48.6918	-81.386	-41.6299	31.8897	-154.187	14.8746	14.3609	-149.136	14.457	-11.6167	-148.755	13.8147	-42.6796	-180.163	20.2232	5.9019	-185.206	13.5441	-24.9901	-192.62	3.55162	-51.7619	-205.624	17.0564	18.7401	-213.012	11.567	-4.74114	-218.944	-0.671644	-32.5385	-222.335	12.3061	39.9908	-237.997	8.1038	15.7778	-245.233	4.03285	-7.16005	-194.076	27.5079	70.92	-188.474	41.4046	101.171	-156.503	34.3967	82.4518	
14	0.116667	-127.01	6.82988	93.1205	-109.846	-11.1653	76.4587	-94.075	-30.0825	50.7943	-88.7179	-45.677	32.2044	-153.898	16.9132	11.9328	-150.471	15.9438	-13.1605	-148.879	14.0479	-41.9075	-178.714	21.1293	9.6863	-184.618	13.7632	-23.6898	-195.861	-4.5233	-54.6806	-204.573	18.354	19.9086	-213.091	10.9629	-7.59233	-216.384	-6.45326	-30.8802	-225.816	13.6299	41.2381	-235.824	9.01981	18.3549	-244.675	-2.56598	-10.4829	-197.501	30.5744	74.9097	-188.268	38.8955	102.078	-158.425	33.8754	81.0226	
15	0.125	-127.531	6.43844	92.7403	-112.415	-13.4777	72.9708	-98.0054	-33.3283	45.4122	-93.1291	-50.4366	32.4152	-151.082	19.562	14.0897	-146.02	19.0095	-13.3204	-149.923	18.4908	-44.5314	-181.847	23.697	11.0178	-185.262	11.4823	-26.5671	-194.545	-10.8729	-48.5958	-205.001	19.9457	21.5907	-210.463	9.45883	-6.71482	-215.566	-15.5334	-27.6561	-224.728	14.4792	41.9433	-231.246	6.92502	14.5421	-234.692	-10.9823	-9.79559	-195.438	30.1234	72.3353	-188.613	40.7831	103.384	-156.486	36.4499	78.5346	
16	0.133333	-127.097	7.78307	93.7467	-112.479	-15.4573	69.9218	-103.399	-35.5501	47.5678	-100.964	-53.2305	26.0449	-151.976	22.2654	16.3323	-149.79	21.8695	-15.7138	-149.119	21.5015	-41.5534	-183.75	22.7672	11.9404	-190.336	7.38373	-23.5176	-195.722	-23.8665	-39.4132	-201.732	18.6699	18.8492	-211.724	4.0287	-8.76848	-211.047	-29.9662	-21.4426	-222.029	13.9151	39.4528	-228.474	4.10357	13.1804	-227.184	-20.1271	-4.29699	-195.757	32.4513	76.7136	-188.642	42.7094	101.629	-158.949	37.9434	78.8677	
17	0.141667	-126.233	7.69212	91.2508	-115.672	-15.9332	73.9138	-107.634	-38.1167	47.9704	-108.17	-56.3069	25.8747	-148.212	23.7246	16.4956	-149.023	23.722	-15.7275	-147.948	23.15	-40.9629	-182.486	20.6875	5.8692	-186.697	-0.694993	-21.3288	-191.783	-42.0187	-23.8624	-203.924	16.997	16.932	-209.165	-1.8844	-6.93894	-199.42	-38.4364	-6.79172	-218.236	12.7778	39.7997	-225.194	-4.1976	9.74459	-218.814	-29.9802	3.82578	-194.302	33.2911	72.6684	-191.595	42.4979	101.368	-160.316	38.9659	80.8924	
